G04 EAGLE Gerber RS-274X export*
G75*
%MOMM*%
%FSLAX34Y34*%
%LPD*%
%INBottom Copper*%
%IPPOS*%
%AMOC8*
5,1,8,0,0,1.08239X$1,22.5*%
G01*
%ADD10C,1.320800*%
%ADD11C,1.308000*%
%ADD12C,1.524000*%
%ADD13C,1.508000*%
%ADD14C,0.203200*%
%ADD15C,1.308000*%


D10*
X722600Y497902D02*
X722600Y491298D01*
X697200Y491298D02*
X697200Y497902D01*
X671800Y497902D02*
X671800Y491298D01*
X646400Y491298D02*
X646400Y497902D01*
X621000Y497902D02*
X621000Y491298D01*
X595600Y491298D02*
X595600Y497902D01*
X570200Y497902D02*
X570200Y491298D01*
X544800Y491298D02*
X544800Y497902D01*
X519400Y497902D02*
X519400Y491298D01*
X494000Y491298D02*
X494000Y497902D01*
X468600Y497902D02*
X468600Y491298D01*
X443200Y491298D02*
X443200Y497902D01*
X417800Y497902D02*
X417800Y491298D01*
X392400Y491298D02*
X392400Y497902D01*
X392400Y421702D02*
X392400Y415098D01*
X417800Y415098D02*
X417800Y421702D01*
X443200Y421702D02*
X443200Y415098D01*
X468600Y415098D02*
X468600Y421702D01*
X494000Y421702D02*
X494000Y415098D01*
X519400Y415098D02*
X519400Y421702D01*
X544800Y421702D02*
X544800Y415098D01*
X570200Y415098D02*
X570200Y421702D01*
X595600Y421702D02*
X595600Y415098D01*
X621000Y415098D02*
X621000Y421702D01*
X646400Y421702D02*
X646400Y415098D01*
X671800Y415098D02*
X671800Y421702D01*
X697200Y421702D02*
X697200Y415098D01*
X722600Y415098D02*
X722600Y421702D01*
X722600Y343602D02*
X722600Y336998D01*
X697200Y336998D02*
X697200Y343602D01*
X671800Y343602D02*
X671800Y336998D01*
X646400Y336998D02*
X646400Y343602D01*
X621000Y343602D02*
X621000Y336998D01*
X595600Y336998D02*
X595600Y343602D01*
X570200Y343602D02*
X570200Y336998D01*
X544800Y336998D02*
X544800Y343602D01*
X519400Y343602D02*
X519400Y336998D01*
X494000Y336998D02*
X494000Y343602D01*
X468600Y343602D02*
X468600Y336998D01*
X443200Y336998D02*
X443200Y343602D01*
X417800Y343602D02*
X417800Y336998D01*
X392400Y336998D02*
X392400Y343602D01*
X392400Y267402D02*
X392400Y260798D01*
X417800Y260798D02*
X417800Y267402D01*
X443200Y267402D02*
X443200Y260798D01*
X468600Y260798D02*
X468600Y267402D01*
X494000Y267402D02*
X494000Y260798D01*
X519400Y260798D02*
X519400Y267402D01*
X544800Y267402D02*
X544800Y260798D01*
X570200Y260798D02*
X570200Y267402D01*
X595600Y267402D02*
X595600Y260798D01*
X621000Y260798D02*
X621000Y267402D01*
X646400Y267402D02*
X646400Y260798D01*
X671800Y260798D02*
X671800Y267402D01*
X697200Y267402D02*
X697200Y260798D01*
X722600Y260798D02*
X722600Y267402D01*
D11*
X133270Y304600D02*
X126730Y304600D01*
X126730Y355400D02*
X133270Y355400D01*
D12*
X880000Y571190D02*
X880000Y578810D01*
X854600Y578810D02*
X854600Y571190D01*
X829200Y571190D02*
X829200Y578810D01*
D13*
X113770Y127300D02*
X106230Y127300D01*
X106230Y152700D02*
X113770Y152700D01*
X896230Y369200D02*
X903770Y369200D01*
X903770Y394600D02*
X896230Y394600D01*
X896230Y420000D02*
X903770Y420000D01*
X903770Y445400D02*
X896230Y445400D01*
X896230Y470800D02*
X903770Y470800D01*
X233770Y454600D02*
X226230Y454600D01*
X226230Y480000D02*
X233770Y480000D01*
X233770Y505400D02*
X226230Y505400D01*
X113770Y454600D02*
X106230Y454600D01*
X106230Y480000D02*
X113770Y480000D01*
X113770Y505400D02*
X106230Y505400D01*
X896230Y227300D02*
X903770Y227300D01*
X903770Y252700D02*
X896230Y252700D01*
D12*
X824600Y123810D02*
X824600Y116190D01*
X850000Y116190D02*
X850000Y123810D01*
X875400Y123810D02*
X875400Y116190D01*
X634600Y116190D02*
X634600Y123810D01*
X660000Y123810D02*
X660000Y116190D01*
X685400Y116190D02*
X685400Y123810D01*
X898100Y83810D02*
X898100Y76190D01*
X872700Y76190D02*
X872700Y83810D01*
X847300Y83810D02*
X847300Y76190D01*
X821900Y76190D02*
X821900Y83810D01*
X708100Y83810D02*
X708100Y76190D01*
X682700Y76190D02*
X682700Y83810D01*
X657300Y83810D02*
X657300Y76190D01*
X631900Y76190D02*
X631900Y83810D01*
D11*
X233270Y304600D02*
X226730Y304600D01*
X226730Y355400D02*
X233270Y355400D01*
D14*
X228600Y455676D02*
X111252Y455676D01*
X228600Y455676D02*
X230000Y454600D01*
X111252Y455676D02*
X110000Y454600D01*
X569976Y315468D02*
X569976Y265176D01*
X569976Y315468D02*
X545592Y339852D01*
X569976Y265176D02*
X570200Y264100D01*
X545592Y339852D02*
X544800Y340300D01*
X569976Y419100D02*
X569976Y469392D01*
X545592Y493776D01*
X569976Y419100D02*
X570200Y418400D01*
X545592Y493776D02*
X544800Y494600D01*
X545592Y393192D02*
X545592Y341376D01*
X545592Y393192D02*
X569976Y417576D01*
X545592Y341376D02*
X544800Y340300D01*
X569976Y417576D02*
X570200Y418400D01*
X500968Y450676D02*
X233924Y450676D01*
X230000Y454600D01*
X500968Y450676D02*
X544068Y493776D01*
X544800Y494600D01*
X900684Y324544D02*
X900684Y252984D01*
X900684Y324544D02*
X929400Y353260D01*
X929400Y428551D01*
X900684Y252984D02*
X900000Y252700D01*
X929400Y428551D02*
X900000Y445400D01*
X430316Y249628D02*
X345614Y164926D01*
X339852Y169164D02*
X278892Y108204D01*
X430316Y249628D02*
X430316Y272248D01*
X437936Y279868D01*
X456224Y279868D02*
X503468Y279868D01*
X456224Y279868D02*
X437936Y279868D01*
X505968Y277368D02*
X518160Y265176D01*
X505968Y277368D02*
X503468Y279868D01*
X518160Y265176D02*
X519400Y264100D01*
X345614Y164926D02*
X341376Y169164D01*
X345614Y164926D02*
X394716Y115824D01*
X341376Y169164D02*
X339852Y169164D01*
X456224Y209764D02*
X456224Y279868D01*
X456224Y209764D02*
X458724Y207264D01*
X518160Y382592D02*
X518160Y417576D01*
X518160Y382592D02*
X505968Y370400D01*
X505968Y277368D01*
X518160Y417576D02*
X519400Y418400D01*
D15*
X278892Y108204D03*
X394716Y115824D03*
X458724Y207264D03*
D14*
X520180Y80036D02*
X622490Y80036D01*
X520180Y80036D02*
X485180Y115036D01*
X622490Y80036D02*
X622535Y80000D01*
X631900Y80000D01*
X637100Y131988D02*
X683728Y178616D01*
X637100Y122500D02*
X634600Y120000D01*
X637100Y122500D02*
X637100Y131988D01*
D15*
X485180Y115036D03*
D14*
X683728Y178616D02*
X683728Y511228D01*
X685000Y512500D01*
X720000Y512500D01*
X722600Y509900D02*
X722600Y494600D01*
X722600Y509900D02*
X720000Y512500D01*
X824600Y120000D02*
X824600Y112780D01*
X840392Y96988D01*
X854416Y96988D01*
X860512Y90892D01*
X860512Y61628D01*
X854416Y55532D01*
X826676Y55532D01*
X821900Y60308D02*
X821900Y80000D01*
X821900Y60308D02*
X826676Y55532D01*
X230124Y355092D02*
X230000Y355400D01*
D15*
X352500Y375000D03*
D14*
X305000Y375000D01*
X285000Y355000D01*
X230216Y355000D01*
X230124Y355092D01*
X131064Y303276D02*
X245364Y188976D01*
X131064Y303276D02*
X130000Y304600D01*
X519400Y494600D02*
X519400Y503940D01*
X508348Y514992D01*
X488228Y514992D01*
X481036Y507800D01*
X481036Y482680D01*
X473724Y475368D01*
X129540Y304800D02*
X72964Y361376D01*
X129540Y304800D02*
X130000Y304600D01*
D15*
X245364Y188976D03*
D14*
X72964Y522964D02*
X82500Y532500D01*
X275000Y532500D01*
X332132Y475368D02*
X473724Y475368D01*
X72964Y522964D02*
X72964Y361376D01*
X275000Y532500D02*
X332132Y475368D01*
X291152Y286632D02*
X199524Y286632D01*
X131064Y355092D01*
X130000Y355400D01*
X494000Y468572D02*
X494000Y494600D01*
X494000Y468572D02*
X487748Y462320D01*
X129540Y356616D02*
X86012Y400144D01*
X129540Y356616D02*
X130000Y355400D01*
D15*
X291152Y286632D03*
D14*
X86012Y516012D02*
X90000Y520000D01*
X265000Y520000D01*
X322680Y462320D02*
X487748Y462320D01*
X86012Y516012D02*
X86012Y400144D01*
X265000Y520000D02*
X322680Y462320D01*
X687324Y560832D02*
X865632Y560832D01*
X879348Y574548D01*
X880000Y575000D01*
D15*
X687324Y560832D03*
D14*
X447508Y541088D02*
X417800Y511380D01*
X417800Y494600D01*
X447508Y541088D02*
X778696Y541088D01*
X899160Y420624D01*
X900000Y420000D01*
X486704Y528040D02*
X468600Y509936D01*
X468600Y494600D01*
X486704Y528040D02*
X765836Y528040D01*
X899160Y394716D01*
X900000Y394600D01*
X443484Y263652D02*
X443484Y103444D01*
X512492Y34436D01*
X898100Y34436D01*
X443484Y263652D02*
X443200Y264100D01*
X898100Y80000D02*
X898100Y34436D01*
X469392Y102108D02*
X469392Y263652D01*
X469392Y102108D02*
X526516Y44984D01*
X872700Y44984D01*
X872700Y80000D01*
X469392Y263652D02*
X468600Y264100D01*
X495300Y263652D02*
X495300Y198360D01*
X598076Y95584D01*
X828508Y95584D01*
X840594Y83498D01*
X495300Y263652D02*
X494000Y264100D01*
X840594Y83498D02*
X847300Y80000D01*
X469392Y381000D02*
X469392Y417576D01*
X469392Y381000D02*
X480420Y369972D01*
X480420Y302916D02*
X489324Y294012D01*
X480420Y302916D02*
X480420Y369972D01*
X469392Y417576D02*
X468600Y418400D01*
D15*
X489324Y294012D03*
D14*
X494000Y418400D02*
X494000Y437680D01*
X497612Y441292D01*
X530232Y441292D01*
X533400Y438124D01*
X533400Y239268D01*
D15*
X533400Y239268D03*
D14*
X697992Y339800D02*
X697992Y339852D01*
X697992Y339800D02*
X851368Y186424D01*
X851368Y121368D02*
X850000Y120000D01*
X851368Y121368D02*
X851368Y186424D01*
X697992Y339852D02*
X697200Y340300D01*
X670560Y339852D02*
X670560Y317300D01*
X633436Y280176D01*
X633436Y208136D01*
X608316Y183016D01*
X608316Y105276D01*
X610936Y102656D01*
X775000Y102656D01*
X837224Y111252D02*
X837224Y140000D01*
X837224Y111252D02*
X843320Y105156D01*
X861060Y105156D01*
X874776Y118872D01*
X671800Y340300D02*
X670560Y339852D01*
X875400Y120000D02*
X874776Y118872D01*
X817344Y145000D02*
X775000Y102656D01*
X832224Y145000D02*
X837224Y140000D01*
X832224Y145000D02*
X817344Y145000D01*
X776250Y236250D02*
X775000Y237500D01*
D15*
X775000Y237500D03*
D14*
X776250Y236250D02*
X660000Y120000D01*
D15*
X727500Y145000D03*
D14*
X702500Y120000D01*
X685400Y120000D01*
M02*
