G04 EAGLE Gerber RS-274X export*
G75*
%MOMM*%
%FSLAX34Y34*%
%LPD*%
%IN*%
%IPPOS*%
%AMOC8*
5,1,8,0,0,1.08239X$1,22.5*%
G01*
%ADD10C,0.254000*%


D10*
X0Y0D02*
X980000Y0D01*
X980000Y600000D01*
X0Y600000D01*
X0Y0D01*
X37500Y24509D02*
X37423Y23530D01*
X37269Y22560D01*
X37040Y21604D01*
X36736Y20670D01*
X36361Y19763D01*
X35915Y18888D01*
X35401Y18050D01*
X34824Y17255D01*
X34186Y16508D01*
X33492Y15814D01*
X32745Y15176D01*
X31950Y14599D01*
X31112Y14085D01*
X30237Y13639D01*
X29330Y13264D01*
X28396Y12960D01*
X27441Y12731D01*
X26470Y12577D01*
X25491Y12500D01*
X24509Y12500D01*
X23530Y12577D01*
X22560Y12731D01*
X21604Y12960D01*
X20670Y13264D01*
X19763Y13639D01*
X18888Y14085D01*
X18050Y14599D01*
X17255Y15176D01*
X16508Y15814D01*
X15814Y16508D01*
X15176Y17255D01*
X14599Y18050D01*
X14085Y18888D01*
X13639Y19763D01*
X13264Y20670D01*
X12960Y21604D01*
X12731Y22560D01*
X12577Y23530D01*
X12500Y24509D01*
X12500Y25491D01*
X12577Y26470D01*
X12731Y27441D01*
X12960Y28396D01*
X13264Y29330D01*
X13639Y30237D01*
X14085Y31112D01*
X14599Y31950D01*
X15176Y32745D01*
X15814Y33492D01*
X16508Y34186D01*
X17255Y34824D01*
X18050Y35401D01*
X18888Y35915D01*
X19763Y36361D01*
X20670Y36736D01*
X21604Y37040D01*
X22560Y37269D01*
X23530Y37423D01*
X24509Y37500D01*
X25491Y37500D01*
X26470Y37423D01*
X27441Y37269D01*
X28396Y37040D01*
X29330Y36736D01*
X30237Y36361D01*
X31112Y35915D01*
X31950Y35401D01*
X32745Y34824D01*
X33492Y34186D01*
X34186Y33492D01*
X34824Y32745D01*
X35401Y31950D01*
X35915Y31112D01*
X36361Y30237D01*
X36736Y29330D01*
X37040Y28396D01*
X37269Y27441D01*
X37423Y26470D01*
X37500Y25491D01*
X37500Y24509D01*
X37500Y574509D02*
X37423Y573530D01*
X37269Y572560D01*
X37040Y571604D01*
X36736Y570670D01*
X36361Y569763D01*
X35915Y568888D01*
X35401Y568050D01*
X34824Y567255D01*
X34186Y566508D01*
X33492Y565814D01*
X32745Y565176D01*
X31950Y564599D01*
X31112Y564085D01*
X30237Y563639D01*
X29330Y563264D01*
X28396Y562960D01*
X27441Y562731D01*
X26470Y562577D01*
X25491Y562500D01*
X24509Y562500D01*
X23530Y562577D01*
X22560Y562731D01*
X21604Y562960D01*
X20670Y563264D01*
X19763Y563639D01*
X18888Y564085D01*
X18050Y564599D01*
X17255Y565176D01*
X16508Y565814D01*
X15814Y566508D01*
X15176Y567255D01*
X14599Y568050D01*
X14085Y568888D01*
X13639Y569763D01*
X13264Y570670D01*
X12960Y571604D01*
X12731Y572560D01*
X12577Y573530D01*
X12500Y574509D01*
X12500Y575491D01*
X12577Y576470D01*
X12731Y577441D01*
X12960Y578396D01*
X13264Y579330D01*
X13639Y580237D01*
X14085Y581112D01*
X14599Y581950D01*
X15176Y582745D01*
X15814Y583492D01*
X16508Y584186D01*
X17255Y584824D01*
X18050Y585401D01*
X18888Y585915D01*
X19763Y586361D01*
X20670Y586736D01*
X21604Y587040D01*
X22560Y587269D01*
X23530Y587423D01*
X24509Y587500D01*
X25491Y587500D01*
X26470Y587423D01*
X27441Y587269D01*
X28396Y587040D01*
X29330Y586736D01*
X30237Y586361D01*
X31112Y585915D01*
X31950Y585401D01*
X32745Y584824D01*
X33492Y584186D01*
X34186Y583492D01*
X34824Y582745D01*
X35401Y581950D01*
X35915Y581112D01*
X36361Y580237D01*
X36736Y579330D01*
X37040Y578396D01*
X37269Y577441D01*
X37423Y576470D01*
X37500Y575491D01*
X37500Y574509D01*
X967500Y574509D02*
X967423Y573530D01*
X967269Y572560D01*
X967040Y571604D01*
X966736Y570670D01*
X966361Y569763D01*
X965915Y568888D01*
X965401Y568050D01*
X964824Y567255D01*
X964186Y566508D01*
X963492Y565814D01*
X962745Y565176D01*
X961950Y564599D01*
X961112Y564085D01*
X960237Y563639D01*
X959330Y563264D01*
X958396Y562960D01*
X957441Y562731D01*
X956470Y562577D01*
X955491Y562500D01*
X954509Y562500D01*
X953530Y562577D01*
X952560Y562731D01*
X951604Y562960D01*
X950670Y563264D01*
X949763Y563639D01*
X948888Y564085D01*
X948050Y564599D01*
X947255Y565176D01*
X946508Y565814D01*
X945814Y566508D01*
X945176Y567255D01*
X944599Y568050D01*
X944085Y568888D01*
X943639Y569763D01*
X943264Y570670D01*
X942960Y571604D01*
X942731Y572560D01*
X942577Y573530D01*
X942500Y574509D01*
X942500Y575491D01*
X942577Y576470D01*
X942731Y577441D01*
X942960Y578396D01*
X943264Y579330D01*
X943639Y580237D01*
X944085Y581112D01*
X944599Y581950D01*
X945176Y582745D01*
X945814Y583492D01*
X946508Y584186D01*
X947255Y584824D01*
X948050Y585401D01*
X948888Y585915D01*
X949763Y586361D01*
X950670Y586736D01*
X951604Y587040D01*
X952560Y587269D01*
X953530Y587423D01*
X954509Y587500D01*
X955491Y587500D01*
X956470Y587423D01*
X957441Y587269D01*
X958396Y587040D01*
X959330Y586736D01*
X960237Y586361D01*
X961112Y585915D01*
X961950Y585401D01*
X962745Y584824D01*
X963492Y584186D01*
X964186Y583492D01*
X964824Y582745D01*
X965401Y581950D01*
X965915Y581112D01*
X966361Y580237D01*
X966736Y579330D01*
X967040Y578396D01*
X967269Y577441D01*
X967423Y576470D01*
X967500Y575491D01*
X967500Y574509D01*
X967500Y24509D02*
X967423Y23530D01*
X967269Y22560D01*
X967040Y21604D01*
X966736Y20670D01*
X966361Y19763D01*
X965915Y18888D01*
X965401Y18050D01*
X964824Y17255D01*
X964186Y16508D01*
X963492Y15814D01*
X962745Y15176D01*
X961950Y14599D01*
X961112Y14085D01*
X960237Y13639D01*
X959330Y13264D01*
X958396Y12960D01*
X957441Y12731D01*
X956470Y12577D01*
X955491Y12500D01*
X954509Y12500D01*
X953530Y12577D01*
X952560Y12731D01*
X951604Y12960D01*
X950670Y13264D01*
X949763Y13639D01*
X948888Y14085D01*
X948050Y14599D01*
X947255Y15176D01*
X946508Y15814D01*
X945814Y16508D01*
X945176Y17255D01*
X944599Y18050D01*
X944085Y18888D01*
X943639Y19763D01*
X943264Y20670D01*
X942960Y21604D01*
X942731Y22560D01*
X942577Y23530D01*
X942500Y24509D01*
X942500Y25491D01*
X942577Y26470D01*
X942731Y27441D01*
X942960Y28396D01*
X943264Y29330D01*
X943639Y30237D01*
X944085Y31112D01*
X944599Y31950D01*
X945176Y32745D01*
X945814Y33492D01*
X946508Y34186D01*
X947255Y34824D01*
X948050Y35401D01*
X948888Y35915D01*
X949763Y36361D01*
X950670Y36736D01*
X951604Y37040D01*
X952560Y37269D01*
X953530Y37423D01*
X954509Y37500D01*
X955491Y37500D01*
X956470Y37423D01*
X957441Y37269D01*
X958396Y37040D01*
X959330Y36736D01*
X960237Y36361D01*
X961112Y35915D01*
X961950Y35401D01*
X962745Y34824D01*
X963492Y34186D01*
X964186Y33492D01*
X964824Y32745D01*
X965401Y31950D01*
X965915Y31112D01*
X966361Y30237D01*
X966736Y29330D01*
X967040Y28396D01*
X967269Y27441D01*
X967423Y26470D01*
X967500Y25491D01*
X967500Y24509D01*
M02*
