G04 EAGLE Gerber RS-274X export*
G75*
%MOMM*%
%FSLAX34Y34*%
%LPD*%
%INSoldermask Bottom*%
%IPPOS*%
%AMOC8*
5,1,8,0,0,1.08239X$1,22.5*%
G01*
%ADD10C,2.601600*%
%ADD11C,1.422400*%
%ADD12C,1.409600*%
%ADD13C,1.625600*%
%ADD14C,1.609600*%
%ADD15C,1.409600*%


D10*
X25000Y25000D03*
X25000Y575000D03*
X955000Y575000D03*
X955000Y25000D03*
D11*
X722600Y491298D02*
X722600Y497902D01*
X697200Y497902D02*
X697200Y491298D01*
X671800Y491298D02*
X671800Y497902D01*
X646400Y497902D02*
X646400Y491298D01*
X621000Y491298D02*
X621000Y497902D01*
X595600Y497902D02*
X595600Y491298D01*
X570200Y491298D02*
X570200Y497902D01*
X544800Y497902D02*
X544800Y491298D01*
X519400Y491298D02*
X519400Y497902D01*
X494000Y497902D02*
X494000Y491298D01*
X468600Y491298D02*
X468600Y497902D01*
X443200Y497902D02*
X443200Y491298D01*
X417800Y491298D02*
X417800Y497902D01*
X392400Y497902D02*
X392400Y491298D01*
X392400Y421702D02*
X392400Y415098D01*
X417800Y415098D02*
X417800Y421702D01*
X443200Y421702D02*
X443200Y415098D01*
X468600Y415098D02*
X468600Y421702D01*
X494000Y421702D02*
X494000Y415098D01*
X519400Y415098D02*
X519400Y421702D01*
X544800Y421702D02*
X544800Y415098D01*
X570200Y415098D02*
X570200Y421702D01*
X595600Y421702D02*
X595600Y415098D01*
X621000Y415098D02*
X621000Y421702D01*
X646400Y421702D02*
X646400Y415098D01*
X671800Y415098D02*
X671800Y421702D01*
X697200Y421702D02*
X697200Y415098D01*
X722600Y415098D02*
X722600Y421702D01*
X722600Y343602D02*
X722600Y336998D01*
X697200Y336998D02*
X697200Y343602D01*
X671800Y343602D02*
X671800Y336998D01*
X646400Y336998D02*
X646400Y343602D01*
X621000Y343602D02*
X621000Y336998D01*
X595600Y336998D02*
X595600Y343602D01*
X570200Y343602D02*
X570200Y336998D01*
X544800Y336998D02*
X544800Y343602D01*
X519400Y343602D02*
X519400Y336998D01*
X494000Y336998D02*
X494000Y343602D01*
X468600Y343602D02*
X468600Y336998D01*
X443200Y336998D02*
X443200Y343602D01*
X417800Y343602D02*
X417800Y336998D01*
X392400Y336998D02*
X392400Y343602D01*
X392400Y267402D02*
X392400Y260798D01*
X417800Y260798D02*
X417800Y267402D01*
X443200Y267402D02*
X443200Y260798D01*
X468600Y260798D02*
X468600Y267402D01*
X494000Y267402D02*
X494000Y260798D01*
X519400Y260798D02*
X519400Y267402D01*
X544800Y267402D02*
X544800Y260798D01*
X570200Y260798D02*
X570200Y267402D01*
X595600Y267402D02*
X595600Y260798D01*
X621000Y260798D02*
X621000Y267402D01*
X646400Y267402D02*
X646400Y260798D01*
X671800Y260798D02*
X671800Y267402D01*
X697200Y267402D02*
X697200Y260798D01*
X722600Y260798D02*
X722600Y267402D01*
D12*
X133270Y304600D02*
X126730Y304600D01*
X126730Y355400D02*
X133270Y355400D01*
D13*
X880000Y571190D02*
X880000Y578810D01*
X854600Y578810D02*
X854600Y571190D01*
X829200Y571190D02*
X829200Y578810D01*
D14*
X113770Y127300D02*
X106230Y127300D01*
X106230Y152700D02*
X113770Y152700D01*
X896230Y369200D02*
X903770Y369200D01*
X903770Y394600D02*
X896230Y394600D01*
X896230Y420000D02*
X903770Y420000D01*
X903770Y445400D02*
X896230Y445400D01*
X896230Y470800D02*
X903770Y470800D01*
X233770Y454600D02*
X226230Y454600D01*
X226230Y480000D02*
X233770Y480000D01*
X233770Y505400D02*
X226230Y505400D01*
X113770Y454600D02*
X106230Y454600D01*
X106230Y480000D02*
X113770Y480000D01*
X113770Y505400D02*
X106230Y505400D01*
X896230Y227300D02*
X903770Y227300D01*
X903770Y252700D02*
X896230Y252700D01*
D13*
X824600Y123810D02*
X824600Y116190D01*
X850000Y116190D02*
X850000Y123810D01*
X875400Y123810D02*
X875400Y116190D01*
X634600Y116190D02*
X634600Y123810D01*
X660000Y123810D02*
X660000Y116190D01*
X685400Y116190D02*
X685400Y123810D01*
X898100Y83810D02*
X898100Y76190D01*
X872700Y76190D02*
X872700Y83810D01*
X847300Y83810D02*
X847300Y76190D01*
X821900Y76190D02*
X821900Y83810D01*
X708100Y83810D02*
X708100Y76190D01*
X682700Y76190D02*
X682700Y83810D01*
X657300Y83810D02*
X657300Y76190D01*
X631900Y76190D02*
X631900Y83810D01*
D12*
X233270Y304600D02*
X226730Y304600D01*
X226730Y355400D02*
X233270Y355400D01*
D15*
X278892Y108204D03*
X394716Y115824D03*
X458724Y207264D03*
X485180Y115036D03*
X352500Y375000D03*
X245364Y188976D03*
X291152Y286632D03*
X687324Y560832D03*
X489324Y294012D03*
X533400Y239268D03*
X775000Y237500D03*
X727500Y145000D03*
M02*
