M48
;GenerationSoftware,Autodesk,EAGLE,9.6.0*%
;CreationDate,2020-04-13T22:55:09Z*%
FMAT,2
ICI,OFF
METRIC,TZ,000.000
T6C0.800
T5C0.813
T4C1.000
T3C1.016
T2C2.500
%
G90
M71
T2
X95500Y2500
X95500Y57500
X2500Y57500
X2500Y2500
T3
X87540Y12000
X82920Y57500
X85460Y57500
X88000Y57500
X63460Y12000
X66000Y12000
X82460Y12000
X68540Y12000
X89810Y8000
X87270Y8000
X84730Y8000
X82190Y8000
X70810Y8000
X68270Y8000
X65730Y8000
X63190Y8000
X85000Y12000
T4
X90000Y42000
X11000Y12730
X11000Y15270
X90000Y36920
X90000Y39460
X90000Y47080
X23000Y45460
X23000Y48000
X23000Y50540
X11000Y45460
X11000Y48000
X11000Y50540
X90000Y22730
X90000Y25270
X90000Y44540
T5
X49400Y26410
X64640Y26410
X46860Y26410
X44320Y26410
X41780Y26410
X39240Y26410
X39240Y34030
X41780Y34030
X44320Y34030
X51940Y26410
X54480Y26410
X57020Y26410
X59560Y26410
X62100Y26410
X67180Y26410
X69720Y26410
X72260Y26410
X64640Y34030
X49400Y49460
X49400Y41840
X46860Y41840
X44320Y41840
X41780Y41840
X39240Y41840
X39240Y49460
X41780Y49460
X44320Y49460
X46860Y49460
X49400Y34030
X51940Y49460
X54480Y49460
X57020Y49460
X59560Y49460
X62100Y49460
X64640Y49460
X67180Y49460
X69720Y49460
X72260Y49460
X54480Y41840
X46860Y34030
X51940Y34030
X54480Y34030
X57020Y34030
X59560Y34030
X62100Y34030
X67180Y34030
X69720Y34030
X72260Y34030
X72260Y41840
X69720Y41840
X67180Y41840
X64640Y41840
X62100Y41840
X59560Y41840
X57020Y41840
X51940Y41840
T6
X23000Y35540
X23000Y30460
X27889Y10820
X13000Y35540
X13000Y30460
X72750Y14500
X77500Y23750
X53340Y23927
X48932Y29401
X68732Y56083
X29115Y28663
X24536Y18898
X35250Y37500
X48518Y11504
X45872Y20726
X39472Y11582
M30